<svg xmlns="http://www.w3.org/2000/svg" style="display: none;">
  <defs>
    <symbol id="burger" width="32" height="32" viewBox="0 0 32 32">
      <path stroke="#111" stroke-linecap="round" stroke-linejoin="round" stroke-width="2.5" d="M4 16h24M4 8h24M4 24h24"/>
    </symbol>
    <symbol id="chocolate" width="32" height="32" viewBox="0 0 32 32">
      <path d="m13.822 2.413 7.527 7.536.08-.08a.856.856 0 0 1 1.184-.013l.006.006.867.867c.305.305.315.77.083 1.094l-.004.007-.143.192 6.16 6.16c.55.55.55 1.43 0 1.98l-9.43 9.43c-.55.55-1.43.55-1.98 0l-4.447-4.447a.841.841 0 0 1-1.256.071l-2.6-2.6a.856.856 0 0 1-.013-1.184l.006-.007.077-.076-7.527-7.527c-.55-.55-.55-1.43 0-1.98l9.43-9.43c.55-.55 1.43-.55 1.98 0v.001Zm6.582 8.48-1.756-1.755a.592.592 0 0 0-.85 0l-3.58 3.58a.606.606 0 0 0 0 .86l1.749 1.749.61-.61-1.565-1.565 3.21-3.22 1.569 1.574.613-.613Zm-5.076 5.072-1.754-1.754a.592.592 0 0 0-.85 0l-3.58 3.58-.005.005-.005.005c-.24.23-.24.61 0 .85l1.752 1.752.616-.616-1.57-1.564 3.22-3.21 1.564 1.563.612-.611ZM8.822 8.193l3.58 3.58c.24.24.62.24.85-.01l3.58-3.58a.579.579 0 0 0 .18-.42h.01c0-.15-.06-.31-.18-.43l-3.58-3.58a.604.604 0 0 0-.86 0l-3.58 3.59c-.24.23-.24.61 0 .85Zm-5.07 5.07 3.58 3.58c.24.24.62.24.85 0l3.58-3.58a.58.58 0 0 0 .18-.43h.01c0-.16-.06-.31-.18-.43l-3.58-3.58a.592.592 0 0 0-.85 0l-3.59 3.59c-.24.23-.24.61 0 .85Zm6.933 8.754 2.362 2.363 9.636-13.04-.655-.655-11.343 11.332Z"/>
      <path d="m13.822 2.413 7.527 7.536.08-.08a.856.856 0 0 1 1.184-.013l.006.006.867.867c.305.305.315.77.083 1.094l-.004.007-.143.192 6.16 6.16c.55.55.55 1.43 0 1.98l-9.43 9.43c-.55.55-1.43.55-1.98 0l-4.447-4.447a.841.841 0 0 1-1.256.071l-2.6-2.6a.856.856 0 0 1-.013-1.184l.006-.007.077-.076-7.527-7.527c-.55-.55-.55-1.43 0-1.98l9.43-9.43c.55-.55 1.43-.55 1.98 0v.001Zm6.582 8.48-1.756-1.755a.592.592 0 0 0-.85 0l-3.58 3.58a.606.606 0 0 0 0 .86l1.749 1.749.61-.61-1.565-1.565 3.21-3.22 1.569 1.574.613-.613Zm-5.076 5.072-1.754-1.754a.592.592 0 0 0-.85 0l-3.58 3.58-.005.005-.005.005c-.24.23-.24.61 0 .85l1.752 1.752.616-.616-1.57-1.564 3.22-3.21 1.564 1.563.612-.611ZM8.822 8.193l3.58 3.58c.24.24.62.24.85-.01l3.58-3.58a.579.579 0 0 0 .18-.42h.01c0-.15-.06-.31-.18-.43l-3.58-3.58a.604.604 0 0 0-.86 0l-3.58 3.59c-.24.23-.24.61 0 .85Zm-5.07 5.07 3.58 3.58c.24.24.62.24.85 0l3.58-3.58a.58.58 0 0 0 .18-.43h.01c0-.16-.06-.31-.18-.43l-3.58-3.58a.592.592 0 0 0-.85 0l-3.59 3.59c-.24.23-.24.61 0 .85Zm6.933 8.754 2.362 2.363 9.636-13.04-.655-.655-11.343 11.332Z"/>
    </symbol>
    <symbol id="coin" width="32" height="32" viewBox="0 0 32 32">
      <path d="M16 2.667c-7.333 0-13.333 6-13.333 13.333s6 13.333 13.333 13.333 13.333-6 13.333-13.333S23.333 2.667 16 2.667Zm0 24c-5.867 0-10.667-4.8-10.667-10.667S10.133 5.333 16 5.333 26.667 10.133 26.667 16 21.867 26.667 16 26.667Z"/>
      <path d="M17.733 14.667h-3.466c-.667 0-1.2-.534-1.2-1.2 0-.667.533-1.2 1.2-1.2H19.2c.8 0 1.333-.534 1.333-1.334S20 9.6 19.2 9.6h-1.867V8.4c0-.8-.533-1.333-1.333-1.333-.8 0-1.333.533-1.333 1.333v1.2h-.4a3.87 3.87 0 0 0-3.867 3.867 3.87 3.87 0 0 0 3.867 3.866H17.6c.667 0 1.2.534 1.2 1.2 0 .667-.533 1.2-1.2 1.2h-4.933c-.8 0-1.334.534-1.334 1.334s.534 1.333 1.334 1.333h2v1.2c0 .8.533 1.333 1.333 1.333.8 0 1.333-.533 1.333-1.333v-1.2h.4a3.87 3.87 0 0 0 3.867-3.867 3.87 3.87 0 0 0-3.867-3.866Z"/>
    </symbol>
    <symbol id="spoon" width="32" height="32" viewBox="0 0 32 32">
      <path d="M15.451 14.106a5.156 5.156 0 0 1-1.176-3.282c0-4.324 5.181-8.642 10.362-8.642a5.183 5.183 0 0 1 5.181 5.182c0 5.182-4.317 10.364-8.646 10.364a5.154 5.154 0 0 1-3.281-1.177L5.133 29.312a1.73 1.73 0 0 1-2.445-2.445l12.764-12.761Z"/>
    </symbol>
    <symbol id="play" width="20" height="21" viewBox="0 0 20 21">
      <path d="M0 21V0l20 10.5L0 21Z"/>
    </symbol>
    <symbol id="user" width="24" height="24" viewBox="0 0 24 24">
      <path stroke="#404040" stroke-linecap="round" stroke-linejoin="round" stroke-width="2" d="M20 21v-2a4 4 0 0 0-4-4H8a4 4 0 0 0-4 4v2m8-10a4 4 0 1 0 0-8 4 4 0 0 0 0 8Z"/>
    </symbol>
    <symbol id="email" width="24" height="24" viewBox="0 0 24 24">
      <path stroke="#404040" stroke-linecap="round" stroke-linejoin="round" stroke-width="2" d="M4 4h16c1.1 0 2 .9 2 2v12c0 1.1-.9 2-2 2H4c-1.1 0-2-.9-2-2V6c0-1.1.9-2 2-2Z"/>
      <path stroke="#404040" stroke-linecap="round" stroke-linejoin="round" stroke-width="2" d="m22 6-10 7L2 6"/>
    </symbol>
    <symbol id="phone" width="24" height="24" viewBox="0 0 24 24">
      <path stroke="#404040" stroke-linecap="round" stroke-linejoin="round" stroke-width="2" d="M22 16.92v3a2.001 2.001 0 0 1-2.18 2 19.79 19.79 0 0 1-8.63-3.07 19.499 19.499 0 0 1-6-6 19.79 19.79 0 0 1-3.07-8.67A2 2 0 0 1 4.11 2h3a2 2 0 0 1 2 1.72c.127.96.362 1.903.7 2.81a2 2 0 0 1-.45 2.11L8.09 9.91a16 16 0 0 0 6 6l1.27-1.27a1.999 1.999 0 0 1 2.11-.45c.907.339 1.85.574 2.81.7A2 2 0 0 1 22 16.92Z"/>
    </symbol>
    <symbol id="error" width="24" height="24" viewBox="0 0 24 24">
      <path d="M11 15h2v2h-2v-2Zm0-8h2v6h-2V7Zm.99-5C6.47 2 2 6.48 2 12s4.47 10 9.99 10C17.52 22 22 17.52 22 12S17.52 2 11.99 2ZM12 20c-4.42 0-8-3.58-8-8s3.58-8 8-8 8 3.58 8 8-3.58 8-8 8Z"/>
    </symbol>
    <symbol id="facebook" width="24" height="24" viewBox="0 0 24 24">
      <path d="M14.64 3.48h.72v2.7h-.9c-.36 0-.72 0-.9.18-.18.18-.18.36-.18.78v.96h1.98v2.28h-1.98v9.9h-3.06v-9.96H8.7V8.04h1.62v-.78c0-1.32.18-2.28.54-2.7.54-.78 1.62-1.14 3.24-1.14.18.06.36.06.54.06Z"/>
    </symbol>
    <symbol id="instagram" width="24" height="24" viewBox="0 0 24 24">
      <path d="M21.538 8.067a6.94 6.94 0 0 0-.447-2.359 4.91 4.91 0 0 0-2.807-2.802 7.054 7.054 0 0 0-2.33-.447c-1.026-.046-1.351-.059-3.955-.059s-2.937 0-3.956.059a7.053 7.053 0 0 0-2.33.447 4.908 4.908 0 0 0-2.807 2.802 6.966 6.966 0 0 0-.446 2.326c-.046 1.025-.06 1.35-.06 3.949 0 2.6 0 2.931.06 3.949a7.01 7.01 0 0 0 .446 2.328 4.91 4.91 0 0 0 2.809 2.801 7.03 7.03 0 0 0 2.33.48c1.026.045 1.351.059 3.955.059s2.937 0 3.956-.06a7.034 7.034 0 0 0 2.33-.446 4.917 4.917 0 0 0 2.808-2.802 7 7 0 0 0 .446-2.328c.046-1.024.06-1.349.06-3.95-.002-2.598-.002-2.928-.062-3.947Zm-9.546 8.831a4.924 4.924 0 0 1-4.928-4.92 4.924 4.924 0 0 1 4.928-4.921 4.925 4.925 0 0 1 4.93 4.92 4.925 4.925 0 0 1-4.93 4.921Zm5.126-8.876a1.147 1.147 0 1 1 0-2.295 1.147 1.147 0 1 1 0 2.295Z"/>
      <path d="M11.994 14.982a3.003 3.003 0 1 0 0-6.006 3.003 3.003 0 0 0 0 6.006Z"/>
    </symbol>
    <symbol id="twitter" width="24" height="24" viewBox="0 0 24 24">
      <path d="M22 5.924a8.549 8.549 0 0 1-2.363.647 4.077 4.077 0 0 0 1.804-2.266 8.192 8.192 0 0 1-2.6.993 4.099 4.099 0 0 0-7.093 2.804c0 .324.028.637.096.934-3.409-.166-6.425-1.8-8.451-4.288A4.128 4.128 0 0 0 2.83 6.82c0 1.42.732 2.679 1.821 3.407A4.049 4.049 0 0 1 2.8 9.722v.046a4.119 4.119 0 0 0 3.285 4.028 4.09 4.09 0 0 1-1.075.135c-.263 0-.527-.015-.776-.07.531 1.624 2.038 2.818 3.831 2.857a8.238 8.238 0 0 1-5.084 1.748A7.67 7.67 0 0 1 2 18.41a11.543 11.543 0 0 0 6.29 1.84c7.545 0 11.67-6.25 11.67-11.668 0-.18-.006-.356-.015-.53A8.179 8.179 0 0 0 22 5.925Z"/>
    </symbol>
  </defs>
</svg>
